<?xml version="1.0" standalone="no"?>
<!DOCTYPE svg PUBLIC "-//W3C//DTD SVG 20010904//EN"
 "http://www.w3.org/TR/2001/REC-SVG-20010904/DTD/svg10.dtd">
<svg version="1.0" xmlns="http://www.w3.org/2000/svg"
 width="373.000000pt" height="264.000000pt" viewBox="0 0 373.000000 264.000000"
 preserveAspectRatio="xMidYMid meet">
<metadata>
Created by potrace 1.16, written by Peter Selinger 2001-2019
</metadata>
<g transform="translate(0.000000,264.000000) scale(0.100000,-0.100000)"
fill="#000000" stroke="none">
<path d="M2244 2346 c-7 -19 2 -250 11 -293 l7 -31 -126 0 c-118 -1 -127 1
-137 20 -7 12 -16 78 -21 147 -6 86 -14 131 -23 141 -27 27 -34 -4 -36 -157
l-1 -152 -37 4 c-46 4 -66 -7 -57 -30 5 -14 15 -17 51 -12 27 3 48 0 52 -6 7
-11 24 -157 25 -212 2 -95 -50 -254 -88 -269 -35 -13 -61 -5 -85 26 -74 99
-90 151 -90 295 -1 63 -5 115 -10 119 -6 3 -15 17 -20 31 -9 24 -13 25 -58 21
-27 -3 -75 -19 -107 -35 -49 -26 -64 -40 -87 -84 -16 -30 -34 -61 -41 -69 -7
-8 -18 -26 -25 -40 -6 -14 -21 -41 -31 -60 -10 -19 -19 -46 -20 -60 0 -14 -7
-35 -15 -47 -8 -12 -21 -45 -29 -75 l-14 -53 -24 50 c-22 47 -23 63 -26 275
-3 226 -8 254 -39 228 -7 -6 -13 -15 -13 -20 0 -6 -8 -22 -19 -36 -12 -18 -21
-55 -26 -112 -4 -46 -13 -97 -21 -112 -8 -15 -14 -39 -14 -55 0 -16 -4 -23 -9
-17 -5 5 -13 64 -19 132 -5 67 -15 128 -20 135 -6 7 -13 24 -16 39 -10 57 -25
71 -68 65 -41 -6 -78 -31 -78 -54 0 -7 -4 -13 -9 -13 -11 0 -35 -56 -28 -67 4
-7 -20 -127 -42 -208 -7 -24 -10 -27 -15 -13 -4 9 -5 21 -2 26 3 5 -1 39 -9
76 -8 38 -24 128 -36 200 -33 206 -45 225 -112 180 -45 -30 -96 -82 -97 -100
0 -6 -11 -20 -25 -32 -29 -26 -31 -35 -9 -56 17 -18 34 -13 34 10 0 23 66 107
98 127 42 24 52 22 52 -15 0 -18 11 -85 24 -148 37 -182 45 -246 53 -452 4
-108 9 -148 18 -152 8 -3 18 1 23 7 10 13 32 166 37 267 2 36 15 107 29 159
13 51 22 100 19 108 -3 8 3 26 14 41 11 15 22 35 26 45 3 9 13 17 22 17 8 0
18 0 22 1 3 0 17 -25 29 -57 20 -48 25 -84 33 -245 9 -188 16 -219 47 -219 8
0 16 12 19 28 4 15 10 45 15 67 5 22 12 63 15 90 4 28 13 65 21 84 8 18 14 53
14 77 0 23 4 45 9 48 5 4 11 -62 13 -156 3 -148 5 -166 26 -199 12 -20 22 -45
22 -57 0 -29 32 -65 51 -57 19 7 39 47 39 76 0 30 31 119 41 119 5 0 9 -21 9
-46 0 -59 21 -103 63 -131 26 -18 49 -23 111 -25 77 -3 77 -3 110 33 22 23 35
50 40 79 7 42 21 70 36 70 4 0 26 -29 49 -65 39 -62 43 -65 81 -65 51 0 102
44 126 108 10 26 21 51 26 56 4 6 8 26 8 46 0 20 3 39 6 43 3 3 20 -22 38 -55
19 -37 42 -68 59 -77 16 -9 45 -28 64 -43 20 -16 48 -28 63 -28 63 0 120 144
120 302 0 49 4 88 8 88 4 0 20 -24 35 -52 42 -83 63 -93 184 -93 l102 1 48 40
c49 42 117 153 111 182 -6 30 -28 23 -44 -15 -60 -137 -109 -172 -239 -173
-67 0 -108 26 -134 85 -11 25 -29 58 -41 72 -11 14 -20 34 -20 44 0 16 7 17
75 13 63 -5 76 -3 81 11 10 25 -3 30 -84 30 l-77 0 -3 50 c-5 113 -23 246 -34
265 -15 23 -46 26 -54 6z m29 -363 c15 -4 17 -20 17 -146 0 -129 -2 -149 -27
-219 -26 -75 -29 -78 -59 -78 -18 0 -38 8 -49 20 -10 11 -24 20 -31 20 -15 0
-74 76 -74 94 0 6 -9 28 -20 49 -16 30 -20 56 -20 145 0 60 3 111 6 114 7 7
231 8 257 1z m-634 -225 c-8 -230 -25 -302 -76 -323 -24 -10 -41 -11 -59 -5
-14 6 -39 10 -55 10 -20 0 -39 9 -54 26 -23 25 -25 35 -25 121 0 87 3 99 36
171 20 42 46 86 57 97 33 32 130 84 157 84 l25 1 -6 -182z"/>
<path d="M2033 1196 c-4 -8 -6 -81 -3 -162 4 -112 2 -148 -7 -151 -17 -7 -16
-28 2 -43 22 -18 21 -185 -2 -231 -9 -19 -17 -36 -19 -37 -8 -10 -82 28 -114
58 l-37 35 8 75 c15 143 11 220 -17 304 -40 123 -68 150 -100 101 -15 -22 -16
-47 -11 -183 6 -168 17 -224 49 -259 29 -31 19 -107 -20 -145 -24 -24 -31 -26
-65 -18 -45 10 -63 32 -93 110 -30 80 -41 117 -55 195 -10 59 -18 76 -49 107
-33 34 -41 37 -84 34 -30 -2 -59 -12 -78 -26 -16 -12 -36 -23 -44 -24 -37 -6
-93 -54 -117 -101 -57 -115 -74 -173 -76 -274 -1 -26 -11 -42 -48 -77 -49 -45
-152 -104 -183 -104 -22 0 -30 -9 -23 -26 3 -8 16 -14 30 -14 33 0 149 63 191
103 20 19 32 26 32 16 0 -27 45 -108 65 -115 11 -4 32 -16 46 -27 31 -22 82
-18 128 11 61 37 177 179 186 227 2 11 8 40 13 65 l9 45 31 -66 c40 -82 75
-109 140 -109 45 0 51 3 80 39 18 22 32 49 32 60 0 11 5 23 10 26 6 3 10 2 10
-4 0 -5 9 -12 19 -16 10 -3 21 -14 24 -24 3 -14 20 -22 61 -31 68 -14 94 -7
102 28 3 15 9 35 15 44 5 10 9 25 9 33 0 23 14 18 54 -20 37 -34 72 -44 111
-29 17 7 75 113 75 139 0 26 19 17 26 -12 6 -25 28 -60 68 -105 9 -10 28 -15
52 -15 33 2 41 7 60 40 11 21 31 70 44 110 13 40 30 81 37 92 7 11 13 30 13
44 0 32 50 243 61 255 16 18 121 -69 167 -138 42 -62 92 -169 92 -197 0 -13
-11 -31 -23 -40 -34 -24 -137 -49 -204 -49 -61 0 -93 -16 -78 -40 8 -13 237
-13 320 0 33 5 107 11 165 14 111 6 145 13 201 41 41 22 51 35 37 52 -21 26
-88 13 -88 -17 0 -15 -14 -20 -84 -30 -47 -7 -88 -10 -93 -7 -4 3 -44 -1 -88
-8 -80 -13 -103 -11 -75 5 8 5 23 15 32 22 30 22 22 109 -13 160 -11 14 -19
31 -19 38 0 18 -82 120 -143 178 -58 54 -97 75 -121 66 -23 -9 -66 -150 -81
-264 -4 -30 -13 -62 -20 -70 -7 -8 -16 -33 -19 -54 -4 -22 -20 -66 -34 -98
-33 -71 -56 -76 -98 -20 l-29 37 2 140 c2 77 5 169 9 205 5 52 3 68 -9 78 -13
11 -18 9 -31 -10 -12 -17 -16 -49 -16 -140 0 -100 -3 -122 -20 -150 -11 -18
-20 -42 -20 -52 0 -11 -15 -50 -32 -87 -29 -60 -36 -68 -61 -69 -59 0 -123 99
-115 180 3 32 6 35 36 36 73 2 63 44 -10 44 l-38 0 -1 88 c-3 178 -19 255 -46
208z m-239 -133 c3 -21 13 -51 21 -67 23 -43 19 -256 -5 -256 -7 0 -24 58 -30
100 -8 58 -10 260 -2 260 5 0 12 -17 16 -37z m-338 -142 c38 -23 46 -58 46
-189 -1 -161 -18 -204 -127 -317 -49 -52 -74 -65 -119 -65 -48 0 -106 56 -107
103 0 18 -2 43 -4 57 -1 14 4 43 11 65 8 22 14 50 14 63 0 12 4 30 9 40 4 9
21 43 37 76 33 67 103 144 154 169 44 21 48 21 86 -2z"/>
</g>
</svg>
